<svg aria-hidden="true" style="position: absolute; width: 0; height: 0; overflow: hidden;" version="1.1" xmlns="http://www.w3.org/2000/svg" xmlns:xlink="http://www.w3.org/1999/xlink">
<defs>
<symbol id="icon-slider" viewBox="0 0 32 32">
<path d="M15.067 16.473c-0.062-0.062-0.112-0.136-0.146-0.217s-0.051-0.168-0.051-0.256 0.017-0.175 0.051-0.256c0.034-0.081 0.083-0.155 0.146-0.217l3.060-3.053c0.062-0.062 0.112-0.136 0.146-0.217s0.051-0.168 0.051-0.256-0.017-0.175-0.051-0.256c-0.034-0.081-0.083-0.155-0.146-0.217-0.125-0.124-0.294-0.194-0.47-0.194s-0.345 0.070-0.47 0.194l-3.060 3.060c-0.375 0.375-0.585 0.883-0.585 1.413s0.21 1.038 0.585 1.413l3.060 3.060c0.124 0.123 0.292 0.193 0.467 0.193 0.088 0 0.175-0.016 0.256-0.050s0.155-0.082 0.217-0.144c0.062-0.062 0.112-0.136 0.146-0.217s0.051-0.168 0.051-0.256-0.017-0.175-0.051-0.256c-0.034-0.081-0.083-0.155-0.146-0.217l-3.060-3.053z"></path>
</symbol>
<symbol id="icon-sliderRight" viewBox="0 0 32 32">
<path d="M16.933 16.473c0.062-0.062 0.112-0.136 0.146-0.217s0.051-0.168 0.051-0.256-0.017-0.175-0.051-0.256c-0.034-0.081-0.083-0.155-0.146-0.217l-3.060-3.053c-0.062-0.062-0.112-0.136-0.146-0.217s-0.051-0.168-0.051-0.256 0.017-0.175 0.051-0.256c0.034-0.081 0.083-0.155 0.146-0.217 0.125-0.124 0.294-0.194 0.47-0.194s0.345 0.070 0.47 0.194l3.060 3.060c0.375 0.375 0.585 0.883 0.585 1.413s-0.21 1.038-0.585 1.413l-3.060 3.060c-0.124 0.123-0.292 0.193-0.467 0.193-0.088 0-0.175-0.016-0.256-0.050s-0.155-0.082-0.217-0.144c-0.062-0.062-0.112-0.136-0.146-0.217s-0.051-0.168-0.051-0.256 0.017-0.175 0.051-0.256c0.034-0.081 0.083-0.155 0.146-0.217l3.060-3.053z"></path>
</symbol>
<symbol id="icon-sliderDoubleRight" viewBox="0 0 32 32">
<path d="M19.333 16.473c0.062-0.062 0.112-0.136 0.146-0.217s0.051-0.168 0.051-0.256-0.017-0.175-0.051-0.256c-0.034-0.081-0.083-0.155-0.146-0.217l-3.060-3.053c-0.062-0.062-0.112-0.136-0.146-0.217s-0.051-0.168-0.051-0.256 0.017-0.175 0.051-0.256c0.034-0.081 0.083-0.155 0.146-0.217 0.125-0.124 0.294-0.194 0.47-0.194s0.345 0.070 0.47 0.194l3.060 3.060c0.375 0.375 0.585 0.883 0.585 1.413s-0.21 1.038-0.585 1.413l-3.060 3.060c-0.124 0.123-0.292 0.193-0.467 0.193-0.088 0-0.175-0.016-0.256-0.050s-0.155-0.082-0.217-0.144c-0.062-0.062-0.112-0.136-0.146-0.217s-0.051-0.168-0.051-0.256 0.017-0.175 0.051-0.256c0.034-0.081 0.083-0.155 0.146-0.217l3.060-3.053z"></path>
<path d="M13.733 16.473c0.062-0.062 0.112-0.136 0.146-0.217s0.051-0.168 0.051-0.256-0.017-0.175-0.051-0.256c-0.034-0.081-0.083-0.155-0.146-0.217l-3.060-3.053c-0.062-0.062-0.112-0.136-0.146-0.217s-0.051-0.168-0.051-0.256 0.017-0.175 0.051-0.256c0.034-0.081 0.083-0.155 0.146-0.217 0.125-0.124 0.294-0.194 0.47-0.194s0.345 0.070 0.47 0.194l3.060 3.060c0.375 0.375 0.585 0.883 0.585 1.413s-0.21 1.038-0.585 1.413l-3.060 3.060c-0.124 0.123-0.292 0.193-0.467 0.193-0.088 0-0.175-0.016-0.256-0.050s-0.155-0.082-0.217-0.144c-0.062-0.062-0.112-0.136-0.146-0.217s-0.051-0.168-0.051-0.256 0.017-0.175 0.051-0.256c0.034-0.081 0.083-0.155 0.146-0.217l3.060-3.053z"></path>
</symbol>
<symbol id="icon-sliderDoubleLeft" viewBox="0 0 32 32">
<path d="M11.867 16.473c-0.062-0.062-0.112-0.136-0.146-0.217s-0.051-0.168-0.051-0.256 0.017-0.175 0.051-0.256c0.034-0.081 0.083-0.155 0.146-0.217l3.060-3.053c0.062-0.062 0.112-0.136 0.146-0.217s0.051-0.168 0.051-0.256-0.017-0.175-0.051-0.256c-0.034-0.081-0.083-0.155-0.146-0.217-0.125-0.124-0.294-0.194-0.47-0.194s-0.345 0.070-0.47 0.194l-3.060 3.060c-0.375 0.375-0.585 0.883-0.585 1.413s0.21 1.038 0.585 1.413l3.060 3.060c0.124 0.123 0.292 0.193 0.467 0.193 0.088 0 0.175-0.016 0.256-0.050s0.155-0.082 0.217-0.144c0.062-0.062 0.112-0.136 0.146-0.217s0.051-0.168 0.051-0.256-0.017-0.175-0.051-0.256c-0.034-0.081-0.083-0.155-0.146-0.217l-3.060-3.053z"></path>
<path d="M17.467 16.473c-0.062-0.062-0.112-0.136-0.146-0.217s-0.051-0.168-0.051-0.256 0.017-0.175 0.051-0.256c0.034-0.081 0.083-0.155 0.146-0.217l3.060-3.053c0.062-0.062 0.112-0.136 0.146-0.217s0.051-0.168 0.051-0.256-0.017-0.175-0.051-0.256c-0.034-0.081-0.083-0.155-0.146-0.217-0.125-0.124-0.294-0.194-0.47-0.194s-0.345 0.070-0.47 0.194l-3.060 3.060c-0.375 0.375-0.585 0.883-0.585 1.413s0.21 1.038 0.585 1.413l3.060 3.060c0.124 0.123 0.292 0.193 0.467 0.193 0.088 0 0.175-0.016 0.256-0.050s0.155-0.082 0.217-0.144c0.062-0.062 0.112-0.136 0.146-0.217s0.051-0.168 0.051-0.256-0.017-0.175-0.051-0.256c-0.034-0.081-0.083-0.155-0.146-0.217l-3.060-3.053z"></path>
</symbol>
</defs>
</svg>
